<?xml version="1.0" encoding="utf-8"?>
<!-- Generator: Adobe Illustrator 25.2.3, SVG Export Plug-In . SVG Version: 6.00 Build 0)  -->
<svg version="1.1" id="Layer_1" xmlns="http://www.w3.org/2000/svg" xmlns:xlink="http://www.w3.org/1999/xlink" x="0px" y="0px"
	 viewBox="0 0 2192 1520" style="enable-background:new 0 0 2192 1520;" xml:space="preserve">
<style type="text/css">
	.st0{fill:none;}
	.st1{fill:none;stroke:#000000;stroke-miterlimit:10;}
	.st2{fill:#4D4D4D;}
	.st3{fill:#CCCCCC;}
	.st4{fill:url(#SVGID_1_);}
	.st5{opacity:0.7;fill:url(#SVGID_2_);}
	.st6{fill:url(#SVGID_3_);stroke:#000000;stroke-miterlimit:10;}
	.st7{fill:none;stroke:#000000;stroke-width:4;stroke-miterlimit:10;}
	.st8{fill:#FFFFFF;stroke:#000000;stroke-width:4;stroke-miterlimit:10;}
	.st9{font-family:'ArialMT';}
	.st10{font-size:80px;}
	.st11{fill:none;stroke:#808080;stroke-width:6;stroke-miterlimit:10;}
	.st12{fill:#808080;}
	.st13{font-size:48px;}
	.st14{fill:none;stroke:#808080;stroke-width:6;stroke-miterlimit:10;stroke-dasharray:30,30;}
	.st15{fill:none;stroke:#808080;stroke-width:3;stroke-miterlimit:10;}
	.st16{opacity:0;clip-path:url(#SVGID_5_);fill:none;stroke:#000000;stroke-width:9.999999e-07;stroke-miterlimit:10;}
	.st17{clip-path:url(#SVGID_5_);}
	.st18{clip-path:url(#SVGID_5_);fill:none;stroke:#000000;stroke-width:1.9104;stroke-miterlimit:10;}
	.st19{fill:none;stroke:#000000;stroke-width:2;stroke-miterlimit:10;}
	.st20{fill:#B3B3B3;}
</style>
<pattern  y="5" width="14.4" height="14.4" patternUnits="userSpaceOnUse" id="Tile_grid" viewBox="14.9 -29.3 14.4 14.4" style="overflow:visible;">
	<g>
		<rect x="14.9" y="-29.3" class="st0" width="14.4" height="14.4"/>
		<rect x="29.3" y="-14.9" class="st1" width="14.4" height="14.4"/>
		<rect x="14.9" y="-14.9" class="st1" width="14.4" height="14.4"/>
		<rect x="0.5" y="-14.9" class="st1" width="14.4" height="14.4"/>
		<rect x="29.3" y="-29.3" class="st1" width="14.4" height="14.4"/>
		<rect x="14.9" y="-29.3" class="st1" width="14.4" height="14.4"/>
		<rect x="0.5" y="-29.3" class="st1" width="14.4" height="14.4"/>
		<rect x="29.3" y="-43.7" class="st1" width="14.4" height="14.4"/>
		<rect x="14.9" y="-43.7" class="st1" width="14.4" height="14.4"/>
		<rect x="0.5" y="-43.7" class="st1" width="14.4" height="14.4"/>
	</g>
</pattern>
<g>
	<path class="st2" d="M702.96,697.3c0,0.51,0.01,1.02,0.01,1.53c0,42.12,0,84.24,0,126.36c0,0.46-0.01,0.93-0.02,1.39
		c-0.01,0.21-0.14,0.33-0.35,0.35c-0.14,0.02-0.27,0.03-0.41,0.03c-0.46,0-0.92,0-1.38,0c-89.45,0-178.9,0-268.35-0.01
		c-0.67,0-1.37,0.19-2.02-0.15c-0.21-0.63-0.11-1.28-0.11-1.92c-0.01-46.7-0.01-93.4,0-140.1c0-0.65,0.03-1.29,0.04-1.94
		c0.39-0.39,0.89-0.45,1.41-0.47c0.55-0.02,1.11-0.01,1.66-0.01c40.95,0,81.91,0,122.86,0c3.64,0,3.64,0,3.64,3.71
		c0,2.78,0,5.55,0,8.33c0,2.4,0,2.4,2.33,2.41c0.46,0,0.92,0,1.38,0c45.51,0,91.03,0,136.54,0.01
		C701.13,696.81,702.15,696.55,702.96,697.3z"/>
	<path class="st3" d="M702.96,697.3c-0.64-0.03-1.29-0.08-1.93-0.08c-46.53,0-93.06,0-139.59,0c-0.41,0-0.83,0.01-1.24-0.01
		c-0.56-0.02-0.66-0.11-0.68-0.63c-0.02-0.37-0.01-0.74-0.01-1.11c0-3.66,0-7.31,0-10.97c0-0.42-0.01-0.83-0.03-1.25
		c-0.01-0.27-0.18-0.41-0.44-0.42c-0.37-0.01-0.74-0.02-1.1-0.02c-42.11,0-84.21,0-126.32,0c-0.41,0-0.83,0.01-1.24,0.02
		c-0.01-0.42-0.02-0.83-0.02-1.25c0-42.46,0-84.93,0-127.39c0-0.37,0.01-0.74,0.01-1.11c0.54-0.47,1.2-0.42,1.84-0.42
		c8.34-0.01,16.68-0.02,25.02,0c1.99,0,2.3,0.33,2.32,2.37c0.03,3.01,0,6.02,0.01,9.02c0.01,3.3-0.22,3.04,2.96,3.04
		c26.26,0.01,52.53,0,78.79,0c0.55,0,1.11,0,1.66,0c2.3,0.02,2.56,0.27,2.58,2.53c0.02,2.45,0,4.91,0.01,7.36
		c0,1.06,0.01,2.13,0,3.19c-0.01,0.92,0.36,1.38,1.31,1.35c0.55-0.02,1.11,0,1.66,0c26.59,0,53.17,0,79.76,0
		c3.21,0,3.26,0.06,3.27,3.23c0,3.1-0.01,6.2,0.01,9.3c0.01,1.75,0.15,1.9,1.9,1.9c6.5,0.02,12.99,0.01,19.49,0.01
		c16.22,0,32.44,0.01,48.66-0.01c0.46,0,0.92-0.06,1.36,0.15c0.01,0.65,0.02,1.29,0.02,1.94c0,32.48,0,64.96,0,97.43
		C703,696.1,702.98,696.7,702.96,697.3z"/>
	<path class="st2" d="M702.98,596.12c-0.24,0.15-0.5,0.22-0.79,0.22c-0.41,0-0.83,0-1.24,0c-22.62,0-45.24,0-67.86,0
		c-0.41,0-0.83,0.01-1.24-0.01c-0.49-0.03-0.63-0.18-0.65-0.7c-0.02-0.37-0.01-0.74-0.01-1.11c0-3.61,0-7.22,0-10.83
		c0-0.37,0.01-0.74-0.01-1.11c-0.02-0.47-0.13-0.6-0.56-0.61c-0.46-0.02-0.92-0.01-1.38-0.01c-27.41,0-54.83,0-82.24,0
		c-2.09,0-1.84,0.27-1.85-1.83c-0.01-3.7,0-7.4,0-11.11c0-0.37-0.01-0.74-0.03-1.11c-0.01-0.21-0.14-0.34-0.35-0.35
		c-0.46-0.02-0.92-0.04-1.38-0.04c-7.65,0-15.3,0-22.94,0c-19.67,0-39.35,0-59.02-0.01c-0.72,0-1.47,0.16-2.18-0.13
		c-0.36-0.74-0.17-1.54-0.17-2.31c-0.02-3.56-0.01-7.13-0.01-10.69c0-1.35,0-1.27-1.31-1.27c-8.48,0-16.95,0-25.43,0
		c-0.64,0-1.29-0.02-1.93-0.03c-0.01-0.51-0.04-1.02-0.04-1.53c0-32.68,0-65.35,0-98.03c0-0.42,0.01-0.83,0.02-1.25
		c0.49-0.43,1.1-0.43,1.7-0.43c3.64-0.01,7.28-0.03,10.92,0c1.84,0.02,2.18,0.35,2.2,2.2c0.04,3.38,0,6.76,0.02,10.13
		c0.01,2.04,0.06,2.09,2.1,2.09c21.93,0,43.86,0,65.8,0c3.72,0,3.72,0,3.72,3.75c0,2.78,0,5.55,0,8.33c0,2.33,0.03,2.36,2.42,2.36
		c4.79,0,9.58,0,14.38,0c17.32,0,34.65,0,51.97,0c3,0,3.11,0.12,3.12,3.11c0,3.05-0.01,6.11,0,9.16c0.01,1.79,0.1,1.89,1.87,1.89
		c11.01,0.01,22.02,0,33.04,0c6.59,0,13.18-0.01,19.77,0c2.29,0,2.54,0.26,2.55,2.55c0.02,3.24,0,6.48,0.01,9.72
		c0,2.16,0.01,2.17,2.14,2.17c17.46,0,34.93,0,52.39,0.01c0.84,0,1.78-0.24,2.47,0.52c0.01,0.65,0.03,1.29,0.03,1.94
		C702.97,539.92,702.98,568.02,702.98,596.12z"/>
	<path class="st3" d="M702.94,509.87c-0.64-0.01-1.29-0.04-1.93-0.04c-17.83,0-35.67,0-53.5,0c-2.2,0-1.94,0.25-1.95-1.89
		c-0.01-3.61,0-7.22,0-10.83c0-0.42,0-0.83-0.03-1.25c-0.02-0.25-0.16-0.43-0.43-0.44c-0.46-0.02-0.92-0.03-1.38-0.03
		c-17.79,0-35.58,0-53.36-0.01c-0.67,0-1.5,0.32-1.97-0.22c-0.4-0.46-0.14-1.24-0.14-1.88c-0.01-3.47-0.01-6.94-0.01-10.41
		c0-0.32,0.01-0.65,0-0.97c-0.03-0.69-0.1-0.77-0.82-0.79c-0.46-0.02-0.92-0.01-1.38-0.01c-22.53,0-45.07,0-67.6,0
		c-2.21,0-1.99,0.21-1.99-2.01c-0.01-3.61,0-7.22,0-10.83c0-0.37-0.01-0.74-0.03-1.11c-0.01-0.26-0.16-0.44-0.42-0.45
		c-0.46-0.03-0.92-0.04-1.38-0.04c-13.73,0-27.46,0-41.2,0c-8.99,0-17.97,0-26.96,0c-1.92,0-1.72,0.16-1.72-1.7
		c-0.01-3.66,0-7.31,0-10.97c0-0.32,0.01-0.65,0-0.97c-0.03-0.69-0.1-0.77-0.82-0.8c-0.28-0.01-0.55-0.01-0.83-0.01
		c-3.73,0-7.47,0-11.2,0c-0.5,0-1.01,0.05-1.51,0.07c0-23.56,0-47.13,0.01-70.69c0-0.51,0.01-1.02,0.01-1.52
		c0.54-0.47,1.2-0.42,1.84-0.42c17.88-0.01,35.76-0.01,53.64,0c2.16,0,2.45,0.31,2.47,2.51c0.02,3.19,0,6.39,0.01,9.58
		c0,2.32,0.02,2.34,2.29,2.34c12.4,0,24.79,0,37.19,0c3.35,0,3.38,0.03,3.39,3.4c0,3.01-0.01,6.02,0,9.02
		c0.01,1.95,0.07,2.01,2.04,2.01c17.33,0,34.65,0,51.98,0c3.5,0,3.5,0,3.5,3.56c0,2.73,0,5.46,0,8.19c0,2.69,0,2.69,2.75,2.69
		c16.91,0,33.82,0,50.73,0c3.76,0,3.76,0,3.76,3.84c0,2.73,0,5.46,0,8.19c0,2.4,0,2.4,2.34,2.4c11.52,0,23.04,0,34.56,0
		c5.99,0,11.98-0.01,17.97,0.01c0.72,0,1.49-0.13,2.13,0.37c0.02,0.55,0.05,1.11,0.05,1.66c0,22.88,0,45.75,0,68.63
		C703,508.67,702.96,509.27,702.94,509.87z"/>
	<path class="st2" d="M702.94,437.78c-0.55,0.01-1.1,0.04-1.66,0.04c-18.01,0-36.03,0-54.04,0c-1.87,0-1.69,0.2-1.69-1.72
		c-0.01-3.66,0-7.31,0-10.97c0-0.37,0.01-0.74-0.01-1.11c-0.02-0.53-0.12-0.61-0.68-0.64c-0.41-0.02-0.83-0.01-1.24-0.01
		c-17.83,0-35.66,0-53.49,0c-0.46,0-0.92,0-1.38-0.01c-0.34-0.01-0.49-0.2-0.51-0.52c-0.01-0.37-0.02-0.74-0.02-1.11
		c0-3.75,0-7.5,0-11.24c0-0.37-0.01-0.74-0.03-1.11c-0.01-0.21-0.14-0.35-0.35-0.36c-0.51-0.02-1.01-0.04-1.52-0.04
		c-17.88,0-35.75,0-53.63,0c-0.46,0-0.92,0.01-1.38-0.02c-0.44-0.02-0.54-0.13-0.56-0.61c-0.02-0.37-0.01-0.74-0.01-1.11
		c0-3.56,0-7.13,0-10.69c0-0.32,0-0.65,0-0.97c-0.02-1.02-0.02-1.02-0.98-1.04c-0.37-0.01-0.74,0-1.11,0c-12.99,0-25.98,0-38.98,0
		c-0.46,0-0.92-0.01-1.38-0.02c-0.34-0.01-0.48-0.21-0.49-0.53c-0.01-0.37-0.02-0.74-0.02-1.11c0-3.42,0.01-6.85-0.01-10.27
		c0-0.78,0.13-1.56-0.12-2.33c-0.74-0.36-1.53-0.17-2.29-0.17c-17.65-0.01-35.29-0.01-52.94-0.01c-0.69,0-1.38-0.02-2.07-0.03
		c-0.01-0.46-0.04-0.92-0.04-1.39c0-23.14,0-46.28,0-69.43c0-0.37,0.01-0.74,0.02-1.11c0.5-0.43,1.1-0.43,1.7-0.43
		c3.64-0.01,7.28-0.03,10.92,0c1.85,0.02,2.18,0.35,2.2,2.2c0.04,3.42,0,6.85,0.02,10.27c0.01,1.86,0.1,1.95,1.97,1.95
		c12.67,0.01,25.34,0,38.01,0c3.07,0,3.15,0.09,3.16,3.2c0,3.1-0.01,6.2,0,9.3c0.01,1.84,0.09,1.93,1.98,1.93
		c12.53,0.01,25.06,0,37.6,0c3.25,0,3.28,0.04,3.28,3.35c0,2.87,0,5.74,0,8.61c0,2.2,0.01,2.2,2.26,2.2c17.18,0,34.37,0,51.55,0
		c3.7,0,3.7,0,3.7,3.77c0,2.64,0,5.28,0,7.91c0,2.75,0,2.76,2.68,2.76c12.21,0,24.42,0,36.63,0c3.55,0,3.55,0,3.56,3.64
		c0,2.78,0,5.55,0,8.33c0,2.47,0,2.47,2.41,2.47c12.26,0,24.51,0,36.77,0c0.51,0,1.01,0,1.52,0c2.13,0.03,2.41,0.29,2.43,2.39
		c0.03,3.19,0,6.39,0.01,9.58c0,2.46,0,2.47,2.42,2.47c7.88,0,15.76-0.01,23.64,0.01c0.76,0,1.59-0.16,2.22,0.5
		c0.01,2.45,0.01,4.89,0.01,7.34c0,11.44,0,22.89,0,34.33C702.97,436.77,702.95,437.27,702.94,437.78z"/>
	<path class="st3" d="M702.96,394.59c-0.6-0.02-1.2-0.05-1.79-0.05c-8.34,0-16.68,0-25.02,0c-0.41,0-0.83,0.01-1.24-0.01
		c-0.54-0.02-0.61-0.1-0.63-0.68c-0.01-0.37-0.01-0.74-0.01-1.11c0-3.56,0-7.13,0-10.69c0-0.32,0.01-0.65,0-0.97
		c-0.02-0.94-0.03-0.95-0.91-0.97c-0.37-0.01-0.74,0-1.11,0c-11.8,0-23.59,0-35.39,0c-1.43,0-2.86,0-4.29,0
		c-0.32,0-0.65,0-0.97-0.03c-0.26-0.02-0.41-0.2-0.42-0.46c-0.02-0.37-0.02-0.74-0.02-1.11c0-3.7,0-7.4,0-11.11
		c0-0.42,0-0.83-0.03-1.25c-0.02-0.26-0.18-0.42-0.45-0.43c-0.46-0.02-0.92-0.02-1.38-0.02c-13.04,0-26.08,0-39.12-0.01
		c-2.29,0-1.96,0.29-1.97-1.99c-0.02-3.56,0-7.13,0-10.69c0-0.32,0.01-0.65,0-0.97c-0.02-0.73-0.06-0.76-0.81-0.79
		c-0.37-0.01-0.74,0-1.11,0c-17.88,0-35.75,0-53.63,0c-0.51,0-1.01-0.01-1.52-0.04c-0.2-0.01-0.34-0.14-0.36-0.35
		c-0.03-0.37-0.04-0.74-0.04-1.11c0-3.75,0-7.5,0-11.25c0-1.7,0.12-1.55-1.59-1.55c-13.18,0-26.36,0-39.53,0
		c-2.04,0-1.82,0.19-1.83-1.88c-0.01-3.66,0-7.31,0-10.97c0-0.37-0.01-0.74-0.03-1.11c-0.01-0.27-0.18-0.44-0.43-0.46
		c-0.46-0.03-0.92-0.03-1.38-0.03c-13.09,0-26.17,0-39.26,0c-2.3,0-1.98,0.27-1.99-1.98c-0.02-3.56,0-7.13,0-10.69
		c0-0.32,0.01-0.65,0-0.97c-0.03-0.69-0.1-0.76-0.82-0.79c-0.28-0.01-0.55-0.01-0.83-0.01c-3.73,0-7.46,0-11.2,0
		c-0.5,0-1.01,0.05-1.51,0.07c0-13.98,0-27.97,0.01-41.95c0-0.46,0.01-0.92,0.01-1.38c0.54-0.47,1.2-0.42,1.84-0.42
		c17.88-0.01,35.76-0.01,53.64,0c2.16,0,2.45,0.31,2.47,2.51c0.02,3.19,0,6.39,0.01,9.58c0,2.31,0.03,2.34,2.29,2.34
		c12.4,0,24.79,0,37.19,0c3.34,0,3.38,0.04,3.38,3.41c0,2.82,0,5.65,0,8.47c0,2.55,0,2.56,2.49,2.56c12.49,0,24.98,0,37.46,0
		c3.08,0,3.18,0.1,3.19,3.19c0,3.1-0.01,6.2,0.01,9.3c0.01,1.85,0.1,1.95,1.97,1.95c12.63,0.01,25.25,0,37.88,0
		c3.24,0,3.28,0.04,3.29,3.36c0,2.82,0,5.65,0,8.47c0,2.61,0,2.62,2.54,2.62c12.35,0,24.7,0,37.05,0c3.22,0,3.27,0.05,3.27,3.22
		c0,3.01-0.01,6.02,0,9.02c0.01,2.1,0.09,2.19,2.18,2.19c12.95,0,25.9,0.01,38.85,0c0.55,0,1.11-0.1,1.64,0.14
		c0.01,0.65,0.02,1.29,0.02,1.94c0,18.09,0,36.17,0,54.26C703,393.48,702.97,394.04,702.96,394.59z"/>
	<path class="st2" d="M702.98,336.73c-0.24,0.15-0.5,0.22-0.79,0.22c-0.32,0-0.65,0-0.97,0c-13.18,0-26.35,0-39.53,0
		c-0.18,0-0.37,0-0.55,0c-1.18-0.02-1.2-0.02-1.21-1.28c-0.01-3.79,0-7.59,0-11.38c0-0.23,0-0.46,0-0.69
		c-0.02-1.06-0.02-1.06-1.09-1.09c-0.37-0.01-0.74,0-1.11,0c-12.85,0-25.71,0.01-38.56-0.01c-2.6,0-2.21,0.36-2.23-2.3
		c-0.02-3.52,0-7.03-0.01-10.55c0-0.37-0.01-0.74-0.03-1.11c-0.01-0.27-0.2-0.43-0.44-0.44c-0.46-0.03-0.92-0.03-1.38-0.03
		c-13.08,0-26.17,0-39.25,0c-2.29,0-1.97,0.28-1.98-1.99c-0.02-3.61,0-7.22-0.01-10.83c0-0.37-0.01-0.74-0.02-1.11
		c-0.01-0.27-0.18-0.42-0.44-0.43c-0.46-0.02-0.92-0.02-1.38-0.02c-13.18,0-26.35,0-39.53,0c-1.9,0-1.71,0.22-1.72-1.68
		c-0.01-3.84,0-7.68,0-11.52c0-1.26,0.02-1.23-1.2-1.23c-7.79,0-15.57,0-23.36,0c-5.67,0-11.33,0-17,0c-1.4,0-1.39,0.08-1.39-1.34
		c0-3.79,0.01-7.59,0-11.38c0-1.9,0.18-1.67-1.73-1.67c-17.88,0-35.75,0-53.63,0c-0.69,0-1.38-0.02-2.07-0.03
		c-0.01-0.46-0.04-0.92-0.04-1.39c0-8.61,0-17.22,0-25.83c0-0.37,0-0.74,0.01-1.11c0.01-0.34,0.21-0.48,0.54-0.48
		c0.37,0,0.74-0.01,1.11-0.01c8.48,0,16.96,0,25.44,0c0.32,0,0.65-0.01,0.97,0.01c0.53,0.02,0.62,0.12,0.64,0.68
		c0.02,0.65,0.01,1.3,0.01,1.94c0,3.43,0,6.85,0,10.28c0,0.37,0.01,0.74,0.03,1.11c0.01,0.21,0.15,0.34,0.35,0.35
		c0.46,0.02,0.92,0.03,1.38,0.03c13.13,0,26.27,0,39.4,0.01c2.12,0,1.84-0.3,1.85,1.81c0.02,3.66,0,7.31,0,10.97
		c0,0.37,0.01,0.74,0.01,1.11c0,0.33,0.15,0.52,0.49,0.53c0.41,0.01,0.83,0.01,1.24,0.01c11.75,0,23.5,0,35.25,0
		c1.75,0,3.5-0.01,5.25,0c0.81,0,0.83,0.02,0.83,0.88c0.01,3.43,0,6.85,0.01,10.28c0,0.88-0.01,1.76,0.01,2.64
		c0.01,0.47,0.12,0.57,0.57,0.59c0.37,0.02,0.74,0.01,1.11,0.01c13.23,0,26.45,0,39.68,0c1.97,0,1.71-0.24,1.71,1.66
		c0.01,3.7,0,7.41,0,11.11c0,0.37-0.01,0.74,0.01,1.11c0.02,0.44,0.12,0.53,0.61,0.55c0.41,0.01,0.83,0.01,1.24,0.01
		c12.35,0,24.7,0,37.05,0c1.15,0,2.3-0.01,3.46,0.01c0.47,0.01,0.57,0.11,0.59,0.56c0.02,0.37,0.01,0.74,0.01,1.11
		c0,3.7,0,7.41,0,11.11c0,0.37,0,0.74,0.02,1.11c0.01,0.26,0.18,0.43,0.43,0.45c0.41,0.03,0.83,0.03,1.24,0.03
		c13.13,0,26.27,0,39.4,0.01c0.62,0,1.4-0.28,1.84,0.2c0.39,0.42,0.14,1.15,0.14,1.74c0.01,3.66,0.01,7.31,0.01,10.97
		c0,0.37,0,0.74,0.02,1.11c0.01,0.21,0.15,0.35,0.34,0.36c0.46,0.03,0.92,0.05,1.38,0.05c8.39,0,16.77,0,25.16,0.01
		c2.06,0,1.78-0.22,1.79,1.74C702.98,328.4,702.98,332.56,702.98,336.73z"/>
</g>
<linearGradient id="SVGID_1_" gradientUnits="userSpaceOnUse" x1="703" y1="-86" x2="2192" y2="-86" gradientTransform="matrix(1 0 0 -1 0 812)">
	<stop  offset="0" style="stop-color:#F28E00;stop-opacity:0.5"/>
	<stop  offset="0.9667" style="stop-color:#F28E00;stop-opacity:0.1133"/>
	<stop  offset="1" style="stop-color:#F28E00;stop-opacity:0.1"/>
</linearGradient>
<polygon class="st4" points="2191.15,1073.5 703,826 703,323.5 2192,1472.5 "/>
<linearGradient id="SVGID_2_" gradientUnits="userSpaceOnUse" x1="-1" y1="531" x2="431" y2="531">
	<stop  offset="0" style="stop-color:#F28E00"/>
	<stop  offset="0.9667" style="stop-color:#F28E00;stop-opacity:0.42"/>
	<stop  offset="1" style="stop-color:#F28E00;stop-opacity:0.4"/>
</linearGradient>
<rect x="-1" y="235.5" class="st5" width="432" height="591"/>
<pattern  id="SVGID_3_" xlink:href="#Tile_grid" patternTransform="matrix(1 0 0 1 13 0.7)">
</pattern>
<rect x="430.76" y="92" class="st6" width="28.8" height="806.2"/>
<g id="Comments">
	<g>
		<g>
			<g>
				<g>
					<g>
						<line class="st7" x1="142.62" y1="1303.95" x2="141.22" y2="1079.39"/>
						<g>
							<polygon points="152.89,1087.24 141.01,1043.95 129.65,1087.38 							"/>
						</g>
					</g>
				</g>
			</g>
		</g>
		<g>
			<g>
				<g>
					<g>
						<line class="st7" x1="144.62" y1="1306.4" x2="399.18" y2="1303.94"/>
						<g>
							<polygon points="391.37,1315.64 434.62,1303.61 391.14,1292.4 							"/>
						</g>
					</g>
				</g>
			</g>
		</g>
		<circle class="st8" cx="142.12" cy="1307.9" r="20"/>
		<circle cx="142.62" cy="1307.4" r="10"/>
	</g>
	<text transform="matrix(1 0 0 1 459.9615 1328.3828)" class="st9 st10">Z</text>
	<text transform="matrix(1 0 0 1 113.9631 990.2129)" class="st9 st10">X</text>
	<g>
		<g>
			<line class="st11" x1="484.16" y1="1143.5" x2="652.84" y2="1143.5"/>
			<g>
				<polygon class="st12" points="496.04,1160.93 431,1143.51 496.04,1126.07 				"/>
			</g>
			<g>
				<polygon class="st12" points="640.96,1160.93 706,1143.51 640.96,1126.07 				"/>
			</g>
		</g>
	</g>
	<text transform="matrix(1 0 0 1 461.3335 1215.1665)" class="st9 st13">mll_depth</text>
	<text transform="matrix(1 0 0 1 720.708 815.3555)" class="st9 st13">n_min</text>
	<text transform="matrix(1 0 0 1 257.1978 898.3975)" class="st9 st13">x_min</text>
	<text transform="matrix(1 0 0 1 257.4321 92.1655)" class="st9 st13">x_max</text>
	<text transform="matrix(1 0 0 1 724.3032 676.6753)" class="st9 st13">n_min + 1</text>
	<text transform="matrix(1 0 0 1 727.8779 323.4199)" class="st9 st13">n_max</text>
	<line class="st14" x1="703" y1="826.5" x2="703" y2="1220.5"/>
	<line class="st14" x1="431" y1="898.5" x2="431" y2="1220.5"/>
	<g>
		<g>
			<line class="st15" x1="885.58" y1="1143.5" x2="967.42" y2="1143.5"/>
			<g>
				<polygon class="st12" points="891.52,1152.22 859,1143.51 891.52,1134.78 				"/>
			</g>
			<g>
				<polygon class="st12" points="961.48,1152.22 994,1143.51 961.48,1134.78 				"/>
			</g>
		</g>
	</g>
	<g>
		<g>
			<line class="st15" x1="1013.63" y1="1051.08" x2="1013.87" y2="1097.92"/>
			<g>
				<polygon class="st12" points="1004.95,1057.07 1013.49,1024.5 1022.38,1056.98 				"/>
			</g>
			<g>
				<polygon class="st12" points="1005.12,1092.02 1013.99,1124.5 1022.55,1091.93 				"/>
			</g>
		</g>
	</g>
	<g>
		<defs>
			<rect id="SVGID_4_" x="1201.39" y="188.7" width="804" height="220"/>
		</defs>
		<clipPath id="SVGID_5_">
			<use xlink:href="#SVGID_4_"  style="overflow:visible;"/>
		</clipPath>
		<path class="st16" d="M1604.39,297.7L1604.39,297.7z"/>
		<path class="st17" d="M1356.62,190.98c-0.43-1.05-0.57-1.05-1.67-1.05h-8.08v1.48h1.15c3.68,0,3.78,0.52,3.78,2.25v23.92
			c0,1.29,0,3.54-4.93,3.54v1.48c1.67-0.05,4.02-0.14,5.6-0.14c1.58,0,3.92,0.1,5.6,0.14v-1.48c-4.93,0-4.93-2.25-4.93-3.54v-25.78
			h0.05l11.53,29.75c0.24,0.62,0.48,1.05,0.96,1.05c0.53,0,0.67-0.38,0.86-0.91l11.77-30.28h0.05v27.46c0,1.72-0.09,2.25-3.78,2.25
			h-1.15v1.48c1.77-0.14,5.02-0.14,6.89-0.14c1.87,0,5.07,0,6.84,0.14v-1.48h-1.15c-3.68,0-3.78-0.53-3.78-2.25v-25.21
			c0-1.72,0.1-2.25,3.78-2.25h1.15v-1.48h-8.08c-1.24,0-1.24,0.05-1.58,0.91L1367,217.76L1356.62,190.98"/>
		<path class="st17" d="M1416.83,210.25h-1.2c-0.53,4.88-1.2,10.86-9.61,10.86h-3.92c-2.25,0-2.34-0.33-2.34-1.91V193.7
			c0-1.63,0-2.3,4.55-2.3h1.58v-1.48c-1.72,0.14-6.08,0.14-8.04,0.14c-1.87,0-5.6,0-7.27-0.14v1.48h1.15c3.68,0,3.78,0.52,3.78,2.25
			v25.21c0,1.72-0.1,2.25-3.78,2.25h-1.15v1.48h24.92L1416.83,210.25"/>
		<path class="st17" d="M1446.63,210.25h-1.19c-0.53,4.88-1.2,10.86-9.61,10.86h-3.92c-2.25,0-2.34-0.33-2.34-1.91V193.7
			c0-1.63,0-2.3,4.54-2.3h1.58v-1.48c-1.72,0.14-6.07,0.14-8.04,0.14c-1.87,0-5.6,0-7.27-0.14v1.48h1.15c3.68,0,3.78,0.52,3.78,2.25
			v25.21c0,1.72-0.1,2.25-3.78,2.25h-1.15v1.48h24.92L1446.63,210.25"/>
		<path class="st17" d="M1458.54,194.42c0-2.87-1.15-5.02-3.21-5.02c-1.67,0-2.53,1.29-2.53,2.53c0,1.24,0.81,2.54,2.53,2.54
			c0.96,0,1.63-0.48,1.92-0.76c0.05-0.1,0.09-0.14,0.14-0.14c0.1,0,0.1,0.67,0.1,0.86c0,1.53-0.33,4.98-3.35,7.94
			c-0.57,0.58-0.57,0.67-0.57,0.81c0,0.33,0.24,0.52,0.48,0.52C1454.57,203.7,1458.54,200.07,1458.54,194.42"/>
		<path class="st17" d="M1471.94,213.32c1.05,0.19,4.97,0.96,4.97,4.4c0,2.44-1.67,4.35-5.41,4.35c-4.02,0-5.74-2.73-6.65-6.79
			c-0.14-0.62-0.19-0.81-0.67-0.81c-0.62,0-0.62,0.33-0.62,1.19v6.31c0,0.81,0,1.15,0.53,1.15c0.24,0,0.29-0.05,1.19-0.96
			c0.1-0.1,0.1-0.19,0.96-1.1c2.1,2.01,4.26,2.06,5.26,2.06c5.5,0,7.7-3.21,7.7-6.65c0-2.54-1.43-3.97-2.01-4.54
			c-1.58-1.53-3.44-1.91-5.45-2.3c-2.68-0.53-5.88-1.15-5.88-3.92c0-1.67,1.24-3.63,5.36-3.63c5.26,0,5.5,4.3,5.6,5.79
			c0.05,0.43,0.48,0.43,0.57,0.43c0.62,0,0.62-0.24,0.62-1.15v-4.83c0-0.81,0-1.15-0.53-1.15c-0.24,0-0.33,0-0.96,0.57
			c-0.14,0.19-0.62,0.62-0.81,0.76c-1.82-1.34-3.78-1.34-4.49-1.34c-5.84,0-7.65,3.21-7.65,5.88c0,1.67,0.77,3.01,2.06,4.07
			C1467.15,212.36,1468.49,212.65,1471.94,213.32"/>
		<path class="st17" d="M1505.26,189.4l-6.89,0.53v1.48c3.35,0,3.73,0.34,3.73,2.68v24.87c0,2.15-0.53,2.15-3.73,2.15v1.48
			c1.58-0.05,4.11-0.14,5.31-0.14c1.2,0,3.54,0.1,5.31,0.14v-1.48c-3.21,0-3.73,0-3.73-2.15V189.4"/>
		<path class="st17" d="M1525.68,211.12v4.78c0,4.54-3.44,6.17-5.6,6.17c-2.34,0-4.3-1.67-4.3-4.07
			C1515.78,215.37,1517.79,211.4,1525.68,211.12 M1526.02,218.96c0.19,1.91,1.48,3.92,3.73,3.92c1.01,0,3.92-0.67,3.92-4.54v-2.68
			h-1.2v2.68c0,2.77-1.2,3.06-1.72,3.06c-1.58,0-1.77-2.15-1.77-2.39v-9.57c0-2.01,0-3.88-1.72-5.64c-1.86-1.87-4.26-2.63-6.55-2.63
			c-3.92,0-7.22,2.25-7.22,5.4c0,1.44,0.96,2.25,2.2,2.25c1.34,0,2.2-0.96,2.2-2.2c0-0.57-0.24-2.15-2.44-2.2
			c1.29-1.68,3.63-2.2,5.16-2.2c2.34,0,5.07,1.87,5.07,6.12v1.77c-2.44,0.14-5.79,0.29-8.8,1.72c-3.59,1.63-4.78,4.11-4.78,6.22
			c0,3.87,4.64,5.07,7.65,5.07C1522.91,223.12,1525.11,221.21,1526.02,218.96z"/>
		<path class="st17" d="M1552.54,206.52c1.24-3.01,3.68-3.06,4.45-3.06v-1.48c-1.1,0.1-2.49,0.14-3.59,0.14
			c-0.86,0-3.11-0.1-4.16-0.14v1.48c1.48,0.05,2.25,0.86,2.25,2.06c0,0.48-0.05,0.57-0.28,1.15l-4.83,11.77l-5.31-12.87
			c-0.19-0.48-0.29-0.67-0.29-0.86c0-1.24,1.77-1.24,2.68-1.24v-1.48c-1.24,0.05-4.4,0.14-5.22,0.14c-1.29,0-3.2-0.05-4.64-0.14
			v1.48c2.3,0,3.2,0,3.87,1.68l7.18,17.46c-0.24,0.62-0.91,2.2-1.2,2.82c-1.05,2.63-2.39,5.93-5.45,5.93c-0.24,0-1.34,0-2.25-0.86
			c1.48-0.19,1.87-1.24,1.87-2.01c0-1.24-0.91-2.01-2.01-2.01c-0.96,0-2.01,0.62-2.01,2.06c0,2.15,2.01,3.88,4.4,3.88
			c3.01,0,4.98-2.73,6.12-5.45L1552.54,206.52"/>
		<path class="st17" d="M1561.9,211.55h13.35c1.05,0,1.2,0,1.2-1.01c0-4.74-2.58-9.38-8.56-9.38c-5.55,0-9.95,4.93-9.95,10.91
			c0,6.41,5.02,11.05,10.52,11.05c5.83,0,7.99-5.31,7.99-6.22c0-0.48-0.38-0.57-0.62-0.57c-0.43,0-0.53,0.29-0.62,0.67
			c-1.68,4.93-5.98,4.93-6.46,4.93c-2.39,0-4.31-1.43-5.41-3.21C1561.9,216.43,1561.9,213.27,1561.9,211.55 M1561.95,210.54
			c0.29-7.13,4.3-8.32,5.93-8.32c4.93,0,5.41,6.46,5.41,8.32H1561.95z"/>
		<path class="st17" d="M1585.78,206.71v-5.26l-6.65,0.52v1.48c3.35,0,3.73,0.34,3.73,2.68v12.82c0,2.15-0.53,2.15-3.73,2.15v1.48
			c1.87-0.05,4.11-0.14,5.45-0.14c1.91,0,4.16,0,6.08,0.14v-1.48h-1c-3.54,0-3.64-0.53-3.64-2.25v-7.37c0-4.74,2.01-8.99,5.64-8.99
			c0.33,0,0.43,0,0.53,0.05c-0.14,0.05-1.1,0.62-1.1,1.87c0,1.34,1.01,2.06,2.06,2.06c0.86,0,2.06-0.57,2.06-2.1
			c0-1.53-1.48-2.92-3.54-2.92C1588.17,201.45,1586.45,204.66,1585.78,206.71"/>
		<path class="st17" d="M1618.09,212.17c0-7.8,3.92-9.81,6.46-9.81c0.43,0,3.44,0.05,5.12,1.77c-1.96,0.14-2.25,1.58-2.25,2.2
			c0,1.24,0.86,2.2,2.2,2.2c1.24,0,2.2-0.81,2.2-2.25c0-3.25-3.64-5.12-7.32-5.12c-5.98,0-10.38,5.17-10.38,11.1
			c0,6.12,4.74,10.86,10.28,10.86c6.41,0,7.94-5.74,7.94-6.22s-0.48-0.48-0.62-0.48c-0.43,0-0.53,0.19-0.62,0.48
			c-1.39,4.45-4.5,5.02-6.27,5.02C1622.29,221.93,1618.09,219.87,1618.09,212.17"/>
		<path class="st17" d="M1645.75,221.93c-2.06,0-4.16-1-5.45-3.21c-1.2-2.1-1.2-5.02-1.2-6.74c0-1.87,0-4.45,1.15-6.55
			c1.29-2.2,3.54-3.21,5.45-3.21c2.1,0,4.16,1.05,5.41,3.11c1.24,2.06,1.24,4.83,1.24,6.65c0,1.72,0,4.3-1.05,6.41
			C1650.24,220.54,1648.14,221.93,1645.75,221.93 M1656.32,212.36c0-6.12-4.78-11.19-10.57-11.19c-5.98,0-10.62,5.21-10.62,11.19
			c0,6.17,4.97,10.76,10.57,10.76C1651.49,223.12,1656.32,218.43,1656.32,212.36z"/>
		<path class="st17" d="M1670.95,221.93c-2.06,0-4.16-1-5.45-3.21c-1.2-2.1-1.2-5.02-1.2-6.74c0-1.87,0-4.45,1.15-6.55
			c1.29-2.2,3.54-3.21,5.45-3.21c2.1,0,4.16,1.05,5.4,3.11c1.24,2.06,1.24,4.83,1.24,6.65c0,1.72,0,4.3-1.05,6.41
			C1675.44,220.54,1673.34,221.93,1670.95,221.93 M1681.52,212.36c0-6.12-4.78-11.19-10.57-11.19c-5.98,0-10.62,5.21-10.62,11.19
			c0,6.17,4.97,10.76,10.57,10.76C1676.69,223.12,1681.52,218.43,1681.52,212.36z"/>
		<path class="st17" d="M1690.88,206.71v-5.26l-6.65,0.52v1.48c3.35,0,3.73,0.34,3.73,2.68v12.82c0,2.15-0.53,2.15-3.73,2.15v1.48
			c1.87-0.05,4.11-0.14,5.45-0.14c1.91,0,4.16,0,6.08,0.14v-1.48h-1c-3.54,0-3.64-0.53-3.64-2.25v-7.37c0-4.74,2.01-8.99,5.64-8.99
			c0.33,0,0.43,0,0.53,0.05c-0.14,0.05-1.1,0.62-1.1,1.87c0,1.34,1.01,2.06,2.06,2.06c0.86,0,2.06-0.57,2.06-2.1
			c0-1.53-1.48-2.92-3.54-2.92C1693.27,201.45,1691.55,204.66,1690.88,206.71"/>
		<path class="st17" d="M1719.77,207.15v9.81c0,0.86,0,0.96-0.53,1.77c-1.44,2.3-3.59,3.35-5.65,3.35c-2.15,0-3.88-1.24-5.02-3.06
			c-1.24-1.96-1.39-4.69-1.39-6.65c0-1.77,0.1-4.64,1.48-6.79c1-1.48,2.82-3.06,5.4-3.06c1.67,0,3.68,0.72,5.17,2.87
			C1719.77,206.19,1719.77,206.28,1719.77,207.15 M1719.77,219.96v3.16l7.03-0.53v-1.48c-3.35,0-3.73-0.33-3.73-2.68V189.4
			l-6.89,0.53v1.48c3.35,0,3.73,0.34,3.73,2.68v10.33c-1.39-1.72-3.44-2.96-6.03-2.96c-5.65,0-10.67,4.69-10.67,10.86
			c0,6.07,4.69,10.81,10.14,10.81C1716.42,223.12,1718.57,221.5,1719.77,219.96z"/>
		<path class="st17" d="M1736.85,193.13c0-1.53-1.19-2.54-2.53-2.54c-1.48,0-2.54,1.29-2.54,2.54c0,1.29,1.05,2.54,2.54,2.54
			C1735.65,195.66,1736.85,194.66,1736.85,193.13 M1736.66,201.45l-6.7,0.52v1.48c3.11,0,3.54,0.29,3.54,2.63v12.87
			c0,2.15-0.53,2.15-3.73,2.15v1.48c1.53-0.05,4.11-0.14,5.26-0.14c1.67,0,3.35,0.1,4.97,0.14v-1.48c-3.16,0-3.35-0.24-3.35-2.1
			V201.45z"/>
		<path class="st17" d="M1746.75,206.14v12.82c0,2.15-0.53,2.15-3.73,2.15v1.48c1.67-0.05,4.11-0.14,5.4-0.14
			c1.24,0,3.73,0.1,5.36,0.14v-1.48c-3.2,0-3.73,0-3.73-2.15v-8.8c0-4.98,3.4-7.65,6.46-7.65c3.01,0,3.54,2.58,3.54,5.31v11.15
			c0,2.15-0.53,2.15-3.73,2.15v1.48c1.67-0.05,4.11-0.14,5.41-0.14c1.24,0,3.73,0.1,5.36,0.14v-1.48c-2.49,0-3.68,0-3.73-1.43v-9.14
			c0-4.11,0-5.6-1.48-7.32c-0.67-0.81-2.25-1.77-5.02-1.77c-3.49,0-5.74,2.06-7.08,5.02v-5.02l-6.74,0.52v1.48
			C1746.37,203.46,1746.75,203.8,1746.75,206.14"/>
		<path class="st17" d="M1783.68,211.12v4.78c0,4.54-3.44,6.17-5.6,6.17c-2.34,0-4.3-1.67-4.3-4.07
			C1773.78,215.37,1775.79,211.4,1783.68,211.12 M1784.02,218.96c0.19,1.91,1.48,3.92,3.73,3.92c1.01,0,3.92-0.67,3.92-4.54v-2.68
			h-1.2v2.68c0,2.77-1.19,3.06-1.72,3.06c-1.58,0-1.77-2.15-1.77-2.39v-9.57c0-2.01,0-3.88-1.72-5.64
			c-1.86-1.87-4.26-2.63-6.55-2.63c-3.92,0-7.22,2.25-7.22,5.4c0,1.44,0.96,2.25,2.2,2.25c1.34,0,2.2-0.96,2.2-2.2
			c0-0.57-0.24-2.15-2.44-2.2c1.29-1.68,3.63-2.2,5.16-2.2c2.34,0,5.07,1.87,5.07,6.12v1.77c-2.44,0.14-5.79,0.29-8.8,1.72
			c-3.59,1.63-4.78,4.11-4.78,6.22c0,3.87,4.64,5.07,7.65,5.07C1780.91,223.12,1783.11,221.21,1784.02,218.96z"/>
		<path class="st17" d="M1800.26,203.46h6.84v-1.48h-6.84v-8.8h-1.2c-0.05,3.92-1.48,9.04-6.17,9.23v1.05h4.07v13.2
			c0,5.88,4.45,6.46,6.17,6.46c3.4,0,4.74-3.4,4.74-6.46v-2.73h-1.2v2.63c0,3.54-1.44,5.36-3.21,5.36c-3.2,0-3.2-4.35-3.2-5.17
			V203.46"/>
		<path class="st17" d="M1815.9,211.55h13.35c1.05,0,1.2,0,1.2-1.01c0-4.74-2.58-9.38-8.56-9.38c-5.55,0-9.95,4.93-9.95,10.91
			c0,6.41,5.02,11.05,10.52,11.05c5.83,0,7.99-5.31,7.99-6.22c0-0.48-0.38-0.57-0.62-0.57c-0.43,0-0.53,0.29-0.62,0.67
			c-1.68,4.93-5.98,4.93-6.46,4.93c-2.39,0-4.31-1.43-5.41-3.21C1815.9,216.43,1815.9,213.27,1815.9,211.55 M1815.95,210.54
			c0.29-7.13,4.3-8.32,5.93-8.32c4.93,0,5.41,6.46,5.41,8.32H1815.95z"/>
		<path class="st17" d="M1841.74,213.32c1.05,0.19,4.97,0.96,4.97,4.4c0,2.44-1.68,4.35-5.41,4.35c-4.02,0-5.74-2.73-6.65-6.79
			c-0.14-0.62-0.19-0.81-0.67-0.81c-0.62,0-0.62,0.33-0.62,1.19v6.31c0,0.81,0,1.15,0.53,1.15c0.24,0,0.29-0.05,1.2-0.96
			c0.1-0.1,0.1-0.19,0.96-1.1c2.1,2.01,4.26,2.06,5.26,2.06c5.5,0,7.7-3.21,7.7-6.65c0-2.54-1.43-3.97-2.01-4.54
			c-1.58-1.53-3.44-1.91-5.45-2.3c-2.68-0.53-5.88-1.15-5.88-3.92c0-1.67,1.24-3.63,5.36-3.63c5.26,0,5.5,4.3,5.59,5.79
			c0.05,0.43,0.48,0.43,0.58,0.43c0.62,0,0.62-0.24,0.62-1.15v-4.83c0-0.81,0-1.15-0.53-1.15c-0.24,0-0.33,0-0.96,0.57
			c-0.14,0.19-0.62,0.62-0.81,0.76c-1.82-1.34-3.78-1.34-4.49-1.34c-5.84,0-7.66,3.21-7.66,5.88c0,1.67,0.77,3.01,2.06,4.07
			C1836.95,212.36,1838.29,212.65,1841.74,213.32"/>
		<path class="st17" d="M1859.87,220.06c0-1.39-1.15-2.53-2.54-2.53c-1.39,0-2.53,1.15-2.53,2.53c0,1.39,1.15,2.54,2.53,2.54
			C1858.72,222.6,1859.87,221.45,1859.87,220.06 M1859.87,204.51c0-1.39-1.15-2.54-2.54-2.54c-1.39,0-2.53,1.15-2.53,2.54
			c0,1.39,1.15,2.53,2.53,2.53C1858.72,207.05,1859.87,205.9,1859.87,204.51z"/>
		<path class="st17" d="M1211.93,333.03c0-0.05,0-0.53-0.62-0.53c-1.1,0-4.59,0.38-5.83,0.48c-0.38,0.05-0.91,0.1-0.91,1
			c0,0.53,0.48,0.53,1.2,0.53c2.3,0,2.34,0.43,2.34,0.81l-0.14,0.96l-6.03,23.92c-0.14,0.53-0.24,0.86-0.24,1.63
			c0,2.73,2.1,4.4,4.35,4.4c1.58,0,2.78-0.96,3.59-2.68c0.86-1.82,1.43-4.59,1.43-4.69c0-0.48-0.43-0.48-0.57-0.48
			c-0.48,0-0.53,0.19-0.67,0.86c-0.81,3.11-1.72,5.93-3.63,5.93c-1.44,0-1.44-1.53-1.44-2.2c0-1.15,0.05-1.39,0.29-2.3
			L1211.93,333.03"/>
		<path class="st17" d="M1229.52,360c-0.24,0.86-0.24,0.96-0.96,1.77c-2.1,2.63-4.07,3.4-5.41,3.4c-2.39,0-3.06-2.63-3.06-4.5
			c0-2.39,1.53-8.28,2.63-10.48c1.48-2.82,3.64-4.59,5.55-4.59c3.11,0,3.78,3.92,3.78,4.21c0,0.29-0.1,0.57-0.14,0.81L1229.52,360
			 M1232.63,347.61c-0.86-1.77-2.25-3.06-4.4-3.06c-5.6,0-11.53,7.03-11.53,14.01c0,4.5,2.63,7.65,6.36,7.65
			c0.96,0,3.35-0.19,6.22-3.59c0.38,2.01,2.06,3.59,4.35,3.59c1.67,0,2.78-1.1,3.54-2.63c0.81-1.72,1.44-4.64,1.44-4.74
			c0-0.48-0.43-0.48-0.57-0.48c-0.48,0-0.53,0.19-0.67,0.86c-0.81,3.11-1.68,5.93-3.64,5.93c-1.29,0-1.43-1.24-1.43-2.2
			c0-1.05,0.1-1.43,0.62-3.54c0.53-2.01,0.62-2.49,1.05-4.31l1.72-6.7c0.34-1.34,0.34-1.43,0.34-1.63c0-0.81-0.58-1.29-1.39-1.29
			C1233.49,345.51,1232.77,346.56,1232.63,347.61z"/>
		<path class="st17" d="M1263.34,347.47c0.19-0.67,0.19-0.77,0.19-1.1c0-0.86-0.67-1.29-1.39-1.29c-0.48,0-1.24,0.29-1.67,1
			c-0.1,0.24-0.48,1.72-0.67,2.58c-0.33,1.24-0.67,2.54-0.96,3.83l-2.15,8.61c-0.19,0.72-2.25,4.07-5.4,4.07
			c-2.44,0-2.97-2.1-2.97-3.88c0-2.2,0.81-5.17,2.44-9.38c0.77-1.96,0.96-2.49,0.96-3.44c0-2.15-1.53-3.92-3.92-3.92
			c-4.54,0-6.31,6.94-6.31,7.37c0,0.48,0.48,0.48,0.57,0.48c0.48,0,0.53-0.1,0.77-0.86c1.29-4.5,3.2-5.93,4.83-5.93
			c0.38,0,1.2,0,1.2,1.53c0,1.2-0.48,2.44-0.81,3.35c-1.91,5.07-2.78,7.8-2.78,10.05c0,4.26,3.01,5.69,5.84,5.69
			c1.87,0,3.49-0.81,4.83-2.15c-0.62,2.49-1.2,4.83-3.11,7.37c-1.24,1.63-3.06,3.01-5.26,3.01c-0.67,0-2.82-0.14-3.64-2.01
			c0.77,0,1.39,0,2.06-0.58c0.48-0.43,0.96-1.05,0.96-1.96c0-1.48-1.29-1.67-1.77-1.67c-1.1,0-2.68,0.76-2.68,3.11
			c0,2.39,2.1,4.16,5.07,4.16c4.93,0,9.85-4.35,11.19-9.76L1263.34,347.47"/>
		<path class="st17" d="M1271.89,353.59c1.87-7.27,6.79-7.99,8.04-7.99c2.25,0,3.54,1.39,3.54,3.01c0,4.98-7.65,4.98-9.62,4.98
			H1271.89 M1274.13,354.65c1.39,0,4.93-0.1,7.32-1.1c3.35-1.43,3.59-4.26,3.59-4.93c0-2.1-1.82-4.07-5.12-4.07
			c-5.31,0-12.53,4.64-12.53,13.01c0,4.88,2.82,8.66,7.51,8.66c6.84,0,10.86-5.07,10.86-5.65c0-0.29-0.29-0.62-0.57-0.62
			c-0.24,0-0.34,0.1-0.62,0.48c-3.78,4.74-8.99,4.74-9.57,4.74c-3.73,0-4.16-4.02-4.16-5.55c0-0.57,0.05-2.06,0.77-4.98H1274.13z"/>
		<path class="st17" d="M1291.7,362.87c-0.14,0.72-0.43,1.82-0.43,2.06c0,0.86,0.67,1.29,1.39,1.29c0.57,0,1.44-0.38,1.77-1.34
			c0.1-0.19,1.72-6.7,1.91-7.56c0.38-1.58,1.24-4.93,1.53-6.22c0.19-0.62,1.53-2.87,2.68-3.92c0.38-0.33,1.77-1.58,3.83-1.58
			c1.24,0,1.96,0.57,2.01,0.57c-1.44,0.24-2.49,1.39-2.49,2.63c0,0.77,0.53,1.67,1.82,1.67s2.63-1.1,2.63-2.82
			c0-1.67-1.53-3.11-3.97-3.11c-3.11,0-5.21,2.34-6.12,3.68c-0.38-2.15-2.1-3.68-4.35-3.68c-2.2,0-3.11,1.86-3.54,2.73
			c-0.86,1.62-1.48,4.5-1.48,4.64c0,0.48,0.48,0.48,0.57,0.48c0.48,0,0.53-0.05,0.81-1.1c0.81-3.4,1.77-5.69,3.49-5.69
			c0.81,0,1.48,0.38,1.48,2.2c0,1-0.14,1.53-0.76,4.02L1291.7,362.87"/>
		<polyline class="st17" points="1322.59,377.66 1322.59,375.74 1317.95,375.74 1317.95,331.73 1322.59,331.73 1322.59,329.82 
			1316.03,329.82 1316.03,377.66 1322.59,377.66 		"/>
		<path class="st17" d="M1327.9,362.87c-0.14,0.72-0.43,1.82-0.43,2.06c0,0.86,0.67,1.29,1.39,1.29c0.57,0,1.44-0.38,1.77-1.34
			c0.05-0.1,0.62-2.35,0.91-3.54l1.05-4.3c0.29-1.05,0.58-2.1,0.81-3.2c0.19-0.81,0.57-2.2,0.62-2.39c0.72-1.48,3.25-5.84,7.8-5.84
			c2.15,0,2.58,1.77,2.58,3.35c0,2.97-2.34,9.09-3.11,11.15c-0.43,1.1-0.48,1.67-0.48,2.2c0,2.25,1.67,3.92,3.92,3.92
			c4.5,0,6.27-6.98,6.27-7.37c0-0.48-0.43-0.48-0.57-0.48c-0.48,0-0.48,0.14-0.72,0.86c-0.96,3.25-2.53,5.93-4.88,5.93
			c-0.81,0-1.15-0.48-1.15-1.58c0-1.2,0.43-2.34,0.86-3.4c0.91-2.53,2.92-7.8,2.92-10.52c0-3.2-2.06-5.12-5.5-5.12
			c-4.31,0-6.65,3.06-7.46,4.16c-0.24-2.68-2.2-4.16-4.4-4.16c-2.2,0-3.11,1.86-3.59,2.73c-0.77,1.62-1.43,4.45-1.43,4.64
			c0,0.48,0.48,0.48,0.57,0.48c0.48,0,0.53-0.05,0.81-1.1c0.81-3.4,1.77-5.69,3.49-5.69c0.96,0,1.48,0.62,1.48,2.2
			c0,1-0.14,1.53-0.76,4.02L1327.9,362.87"/>
		<path class="st17" d="M1362.1,365.65c0-3.16-1.2-5.02-3.06-5.02c-1.58,0-2.53,1.2-2.53,2.53c0,1.29,0.96,2.54,2.53,2.54
			c0.57,0,1.2-0.19,1.67-0.62c0.14-0.1,0.19-0.14,0.24-0.14c0.05,0,0.09,0.05,0.09,0.72c0,3.54-1.67,6.41-3.25,7.99
			c-0.53,0.53-0.53,0.62-0.53,0.77c0,0.33,0.24,0.53,0.48,0.53C1358.27,374.93,1362.1,371.24,1362.1,365.65"/>
		<path class="st17" d="M1389.67,351.25c0.29-1.24,1.39-5.65,4.74-5.65c0.24,0,1.39,0,2.39,0.62c-1.34,0.24-2.3,1.43-2.3,2.58
			c0,0.77,0.53,1.67,1.82,1.67c1.05,0,2.58-0.86,2.58-2.77c0-2.49-2.82-3.16-4.45-3.16c-2.78,0-4.45,2.53-5.02,3.63
			c-1.2-3.16-3.78-3.63-5.17-3.63c-4.97,0-7.7,6.17-7.7,7.37c0,0.48,0.48,0.48,0.57,0.48c0.38,0,0.53-0.1,0.62-0.52
			c1.63-5.07,4.78-6.27,6.41-6.27c0.91,0,2.58,0.43,2.58,3.2c0,1.48-0.81,4.69-2.58,11.38c-0.77,2.97-2.44,4.98-4.55,4.98
			c-0.29,0-1.39,0-2.39-0.62c1.2-0.24,2.25-1.24,2.25-2.58c0-1.29-1.05-1.67-1.77-1.67c-1.44,0-2.63,1.24-2.63,2.77
			c0,2.2,2.39,3.16,4.5,3.16c3.16,0,4.88-3.35,5.02-3.64c0.57,1.77,2.3,3.64,5.17,3.64c4.93,0,7.66-6.17,7.66-7.37
			c0-0.48-0.43-0.48-0.58-0.48c-0.43,0-0.53,0.19-0.62,0.53c-1.58,5.12-4.83,6.27-6.36,6.27c-1.87,0-2.63-1.53-2.63-3.16
			c0-1.05,0.29-2.1,0.81-4.21L1389.67,351.25"/>
		<path class="st17" d="M1410.7,365.65c0-3.16-1.2-5.02-3.06-5.02c-1.58,0-2.53,1.2-2.53,2.53c0,1.29,0.96,2.54,2.53,2.54
			c0.57,0,1.2-0.19,1.68-0.62c0.14-0.1,0.19-0.14,0.24-0.14c0.05,0,0.09,0.05,0.09,0.72c0,3.54-1.67,6.41-3.25,7.99
			c-0.52,0.53-0.52,0.62-0.52,0.77c0,0.33,0.24,0.53,0.48,0.53C1406.87,374.93,1410.7,371.24,1410.7,365.65"/>
		<path class="st17" d="M1428.55,361.73c2.58-2.77,3.97-3.97,5.69-5.45c0-0.05,2.96-2.58,4.69-4.3c4.54-4.45,5.6-6.75,5.6-6.94
			c0-0.48-0.43-0.48-0.53-0.48c-0.33,0-0.48,0.1-0.72,0.52c-1.44,2.3-2.44,3.06-3.59,3.06c-1.15,0-1.72-0.72-2.44-1.53
			c-0.91-1.1-1.72-2.06-3.3-2.06c-3.59,0-5.79,4.45-5.79,5.45c0,0.24,0.14,0.53,0.57,0.53c0.43,0,0.53-0.24,0.62-0.53
			c0.91-2.2,3.68-2.25,4.07-2.25c1,0,1.91,0.33,3.01,0.72c1.91,0.72,2.44,0.72,3.68,0.72c-1.72,2.06-5.74,5.5-6.65,6.27l-4.31,4.02
			c-3.25,3.2-4.93,5.93-4.93,6.27c0,0.48,0.48,0.48,0.57,0.48c0.38,0,0.48-0.1,0.77-0.62c1.1-1.67,2.53-2.97,4.07-2.97
			c1.1,0,1.58,0.43,2.77,1.82c0.81,1,1.68,1.77,3.06,1.77c4.74,0,7.51-6.07,7.51-7.37c0-0.24-0.19-0.48-0.57-0.48
			c-0.43,0-0.53,0.29-0.67,0.62c-1.1,3.11-4.16,4.02-5.74,4.02c-0.96,0-1.82-0.29-2.82-0.62c-1.63-0.62-2.34-0.81-3.35-0.81
			C1429.75,361.58,1428.98,361.58,1428.55,361.73"/>
		<polyline class="st17" points="1454.19,329.82 1447.64,329.82 1447.64,331.73 1452.28,331.73 1452.28,375.74 1447.64,375.74 
			1447.64,377.66 1454.19,377.66 1454.19,329.82 		"/>
		<path class="st17" d="M1506,359.33c0.67,0,1.58,0,1.58-0.96c0-0.96-0.91-0.96-1.63-0.96h-28.56c-0.72,0-1.63,0-1.63,0.96
			c0,0.96,0.91,0.96,1.58,0.96H1506 M1505.95,350.05c0.72,0,1.63,0,1.63-0.96c0-0.96-0.91-0.96-1.58-0.96h-28.65
			c-0.67,0-1.58,0-1.58,0.96c0,0.96,0.91,0.96,1.63,0.96H1505.95z"/>
		<path class="st17" d="M1545.88,391.71h-0.05l-10.33-47.93l-6.27,9.85c-0.33,0.43-0.33,0.53-0.33,0.57c0,0.19,0.62,0.72,0.67,0.77
			l3.25-5.12l11.05,51.33c1.58,0,1.72,0,2.01-1.24l26.31-111.6c0.09-0.34,0.19-0.76,0.19-1c0-0.53-0.38-0.96-0.96-0.96
			c-0.77,0-0.91,0.62-1.05,1.29L1545.88,391.71"/>
		<line class="st18" x1="1571.41" y1="287.32" x2="1826" y2="287.32"/>
		<path class="st17" d="M1575.6,362.87c-0.14,0.72-0.43,1.82-0.43,2.06c0,0.86,0.67,1.29,1.39,1.29c0.58,0,1.44-0.38,1.77-1.34
			c0.05-0.1,0.62-2.35,0.91-3.54l1.05-4.3c0.29-1.05,0.57-2.1,0.81-3.2c0.19-0.81,0.57-2.2,0.62-2.39c0.72-1.48,3.25-5.84,7.8-5.84
			c2.15,0,2.58,1.77,2.58,3.35c0,2.97-2.34,9.09-3.11,11.15c-0.43,1.1-0.48,1.67-0.48,2.2c0,2.25,1.67,3.92,3.92,3.92
			c4.5,0,6.27-6.98,6.27-7.37c0-0.48-0.43-0.48-0.58-0.48c-0.48,0-0.48,0.14-0.72,0.86c-0.96,3.25-2.53,5.93-4.88,5.93
			c-0.81,0-1.15-0.48-1.15-1.58c0-1.2,0.43-2.34,0.86-3.4c0.91-2.53,2.92-7.8,2.92-10.52c0-3.2-2.06-5.12-5.5-5.12
			c-4.31,0-6.65,3.06-7.46,4.16c-0.24-2.68-2.2-4.16-4.4-4.16c-2.2,0-3.11,1.86-3.59,2.73c-0.77,1.62-1.43,4.45-1.43,4.64
			c0,0.48,0.48,0.48,0.57,0.48c0.48,0,0.53-0.05,0.81-1.1c0.81-3.4,1.77-5.69,3.49-5.69c0.96,0,1.48,0.62,1.48,2.2
			c0,1-0.14,1.53-0.76,4.02L1575.6,362.87"/>
		<path class="st17" d="M1617.64,346.56h4.11c0.96,0,1.44,0,1.44-0.96c0-0.53-0.48-0.53-1.29-0.53h-3.97l1.01-5.45
			c0.19-1,0.86-4.4,1.15-4.98c0.43-0.91,1.24-1.62,2.25-1.62c0.19,0,1.43,0,2.34,0.86c-2.1,0.19-2.58,1.87-2.58,2.58
			c0,1.1,0.86,1.67,1.77,1.67c1.24,0,2.63-1.05,2.63-2.87c0-2.2-2.2-3.3-4.16-3.3c-1.63,0-4.64,0.86-6.08,5.6
			c-0.29,1-0.43,1.48-1.58,7.51h-3.3c-0.91,0-1.43,0-1.43,0.91c0,0.57,0.43,0.57,1.34,0.57h3.16l-3.59,18.9
			c-0.86,4.64-1.67,8.99-4.16,8.99c-0.19,0-1.39,0-2.3-0.86c2.2-0.14,2.63-1.87,2.63-2.58c0-1.1-0.86-1.67-1.77-1.67
			c-1.24,0-2.63,1.05-2.63,2.87c0,2.15,2.1,3.3,4.07,3.3c2.63,0,4.54-2.82,5.4-4.64c1.53-3.01,2.63-8.8,2.68-9.14L1617.64,346.56"/>
		<path class="st17" d="M1645.77,351.73c1.96,5.02,4.26,12.34,5.02,13.44c0.77,1.05,1.24,1.05,2.53,1.05h1.05
			c0.48-0.05,0.53-0.34,0.53-0.48c0-0.14-0.1-0.24-0.24-0.43c-0.48-0.53-0.76-1.24-1.1-2.2l-9.76-27.22
			c-1.01-2.77-3.59-3.4-5.84-3.4c-0.24,0-0.86,0-0.86,0.53c0,0.38,0.38,0.48,0.43,0.48c1.58,0.29,1.91,0.57,3.11,3.83l4.64,13.01
			l-13.2,13.11c-0.57,0.58-0.86,0.86-0.86,1.48c0,0.81,0.67,1.39,1.43,1.39c0.77,0,1.2-0.53,1.58-1L1645.77,351.73"/>
		<path class="st17" d="M1686.75,354.69h13.35c0.67,0,1.58,0,1.58-0.96c0-0.96-0.91-0.96-1.58-0.96h-13.35v-13.39
			c0-0.67,0-1.58-0.96-1.58c-0.96,0-0.96,0.91-0.96,1.58v13.39h-13.39c-0.67,0-1.58,0-1.58,0.96c0,0.96,0.91,0.96,1.58,0.96h13.39
			v13.39c0,0.67,0,1.58,0.96,1.58c0.96,0,0.96-0.91,0.96-1.58V354.69"/>
		<path class="st17" d="M1719.2,362.87c-0.14,0.72-0.43,1.82-0.43,2.06c0,0.86,0.67,1.29,1.39,1.29c0.57,0,1.44-0.38,1.77-1.34
			c0.05-0.1,0.62-2.35,0.91-3.54l1.05-4.3c0.29-1.05,0.57-2.1,0.81-3.2c0.19-0.81,0.57-2.2,0.62-2.39c0.72-1.48,3.25-5.84,7.8-5.84
			c2.15,0,2.58,1.77,2.58,3.35c0,2.97-2.34,9.09-3.11,11.15c-0.43,1.1-0.48,1.67-0.48,2.2c0,2.25,1.67,3.92,3.92,3.92
			c4.5,0,6.27-6.98,6.27-7.37c0-0.48-0.43-0.48-0.57-0.48c-0.48,0-0.48,0.14-0.72,0.86c-0.96,3.25-2.53,5.93-4.88,5.93
			c-0.81,0-1.15-0.48-1.15-1.58c0-1.2,0.43-2.34,0.86-3.4c0.91-2.53,2.92-7.8,2.92-10.52c0-3.2-2.06-5.12-5.5-5.12
			c-4.31,0-6.65,3.06-7.46,4.16c-0.24-2.68-2.2-4.16-4.4-4.16c-2.2,0-3.11,1.86-3.59,2.73c-0.77,1.62-1.43,4.45-1.43,4.64
			c0,0.48,0.48,0.48,0.57,0.48c0.48,0,0.53-0.05,0.81-1.1c0.81-3.4,1.77-5.69,3.49-5.69c0.96,0,1.48,0.62,1.48,2.2
			c0,1-0.14,1.53-0.76,4.02L1719.2,362.87"/>
		<path class="st17" d="M1760.59,345.81h-1.14c-0.1,0.74-0.44,2.71-0.87,3.05c-0.27,0.2-2.85,0.2-3.31,0.2h-6.16
			c3.51-3.11,4.69-4.05,6.69-5.62c2.48-1.98,4.79-4.05,4.79-7.23c0-4.05-3.55-6.53-7.83-6.53c-4.15,0-6.96,2.91-6.96,5.99
			c0,1.71,1.44,1.88,1.78,1.88c0.8,0,1.77-0.57,1.77-1.77c0-0.6-0.23-1.77-1.97-1.77c1.04-2.38,3.31-3.11,4.89-3.11
			c3.35,0,5.09,2.61,5.09,5.32c0,2.91-2.08,5.22-3.15,6.43l-8.07,7.97c-0.34,0.3-0.34,0.37-0.34,1.3h13.79L1760.59,345.81"/>
		<path class="st17" d="M1787.97,319.43c1.96,5.02,4.26,12.34,5.02,13.44c0.77,1.05,1.24,1.05,2.53,1.05h1.05
			c0.48-0.05,0.53-0.34,0.53-0.48c0-0.14-0.1-0.24-0.24-0.43c-0.48-0.53-0.76-1.24-1.1-2.2l-9.76-27.22
			c-1.01-2.77-3.59-3.39-5.84-3.39c-0.24,0-0.86,0-0.86,0.53c0,0.38,0.38,0.48,0.43,0.48c1.58,0.29,1.91,0.57,3.11,3.83l4.64,13.01
			l-13.2,13.11c-0.58,0.57-0.86,0.86-0.86,1.48c0,0.81,0.67,1.39,1.43,1.39c0.77,0,1.2-0.53,1.58-1L1787.97,319.43"/>
		<path class="st17" d="M1815.69,313.41h-1.14c-0.1,0.74-0.44,2.71-0.87,3.05c-0.27,0.2-2.85,0.2-3.31,0.2h-6.16
			c3.51-3.11,4.69-4.05,6.69-5.62c2.48-1.98,4.79-4.05,4.79-7.23c0-4.05-3.55-6.53-7.83-6.53c-4.15,0-6.96,2.91-6.96,5.99
			c0,1.71,1.44,1.88,1.78,1.88c0.8,0,1.77-0.57,1.77-1.77c0-0.6-0.23-1.77-1.97-1.77c1.04-2.38,3.31-3.11,4.89-3.11
			c3.35,0,5.09,2.61,5.09,5.32c0,2.91-2.07,5.22-3.15,6.43l-8.06,7.97c-0.34,0.3-0.34,0.37-0.34,1.3h13.79L1815.69,313.41"/>
		<line class="st18" x1="1770.92" y1="353.76" x2="1820.26" y2="353.76"/>
		<path class="st17" d="M1797.94,389.12h-11.67l11.67-17.84V389.12z M1797.65,390.6v4.16c0,1.72-0.1,2.25-3.64,2.25h-1.01v1.48
			c1.96-0.14,4.45-0.14,6.46-0.14c2.01,0,4.54,0,6.51,0.14v-1.48h-1c-3.54,0-3.64-0.53-3.64-2.25v-4.16h4.78v-1.48h-4.78v-21.77
			c0-0.96,0-1.24-0.77-1.24c-0.43,0-0.57,0-0.96,0.58l-14.69,22.43v1.48H1797.65z"/>
		<path class="st17" d="M1841.82,377.18c0-0.14,0-0.24-0.81-1.05c-5.98-6.03-7.51-15.07-7.51-22.39c0-8.32,1.82-16.65,7.7-22.62
			c0.62-0.57,0.62-0.67,0.62-0.81c0-0.34-0.19-0.48-0.48-0.48c-0.48,0-4.78,3.25-7.61,9.33c-2.44,5.26-3.01,10.57-3.01,14.59
			c0,3.73,0.53,9.52,3.16,14.93c2.87,5.88,6.98,8.99,7.46,8.99C1841.63,377.66,1841.82,377.51,1841.82,377.18"/>
		<path class="st17" d="M1858.65,335.08c0-1.15,0-1.24-1.1-1.24c-2.97,3.06-7.18,3.06-8.71,3.06v1.48c0.96,0,3.78,0,6.27-1.24v24.78
			c0,1.72-0.14,2.3-4.45,2.3h-1.53v1.48c1.68-0.14,5.84-0.14,7.75-0.14c1.91,0,6.08,0,7.75,0.14v-1.48h-1.53
			c-4.31,0-4.45-0.53-4.45-2.3V335.08"/>
		<path class="st17" d="M1910.61,354.69c0.81,0,1.67,0,1.67-0.96c0-0.96-0.86-0.96-1.67-0.96h-25.88c-0.81,0-1.67,0-1.67,0.96
			c0,0.96,0.86,0.96,1.67,0.96H1910.61"/>
		<path class="st17" d="M1953.15,329.43c2.58-2.78,3.97-3.97,5.69-5.45c0-0.05,2.96-2.58,4.69-4.3c4.54-4.45,5.6-6.75,5.6-6.94
			c0-0.48-0.43-0.48-0.53-0.48c-0.33,0-0.48,0.1-0.72,0.52c-1.44,2.3-2.44,3.06-3.59,3.06c-1.15,0-1.72-0.72-2.44-1.53
			c-0.91-1.1-1.72-2.06-3.3-2.06c-3.59,0-5.79,4.45-5.79,5.45c0,0.24,0.14,0.52,0.57,0.52c0.43,0,0.53-0.24,0.62-0.52
			c0.91-2.2,3.68-2.25,4.07-2.25c1,0,1.91,0.33,3.01,0.72c1.91,0.72,2.44,0.72,3.68,0.72c-1.72,2.06-5.74,5.5-6.65,6.27l-4.31,4.02
			c-3.25,3.2-4.93,5.93-4.93,6.27c0,0.48,0.48,0.48,0.57,0.48c0.38,0,0.48-0.1,0.77-0.62c1.1-1.68,2.53-2.97,4.07-2.97
			c1.1,0,1.58,0.43,2.77,1.82c0.81,1,1.67,1.77,3.06,1.77c4.74,0,7.51-6.08,7.51-7.37c0-0.24-0.19-0.48-0.57-0.48
			c-0.43,0-0.53,0.29-0.67,0.62c-1.1,3.11-4.16,4.02-5.74,4.02c-0.96,0-1.82-0.29-2.82-0.62c-1.63-0.62-2.34-0.81-3.35-0.81
			C1954.35,329.28,1953.58,329.28,1953.15,329.43"/>
		<line class="st18" x1="1932.69" y1="353.76" x2="1985.16" y2="353.76"/>
		<path class="st17" d="M1938.76,394.81l5.07-4.93c7.46-6.6,10.33-9.18,10.33-13.97c0-5.45-4.31-9.28-10.14-9.28
			c-5.41,0-8.95,4.4-8.95,8.66c0,2.68,2.39,2.68,2.54,2.68c0.81,0,2.49-0.58,2.49-2.54c0-1.24-0.86-2.49-2.53-2.49
			c-0.38,0-0.48,0-0.62,0.05c1.1-3.11,3.68-4.88,6.46-4.88c4.35,0,6.41,3.88,6.41,7.8c0,3.83-2.39,7.61-5.02,10.57l-9.19,10.24
			c-0.53,0.53-0.53,0.62-0.53,1.77h17.75l1.34-8.32h-1.2c-0.24,1.44-0.57,3.54-1.05,4.26c-0.33,0.38-3.49,0.38-4.54,0.38H1938.76"/>
		<path class="st17" d="M1974.14,379.36h4.11c0.96,0,1.44,0,1.44-0.96c0-0.53-0.48-0.53-1.29-0.53h-3.97l1.01-5.45
			c0.19-1,0.86-4.4,1.15-4.98c0.43-0.91,1.24-1.62,2.25-1.62c0.19,0,1.43,0,2.34,0.86c-2.1,0.19-2.58,1.87-2.58,2.58
			c0,1.1,0.86,1.67,1.77,1.67c1.24,0,2.63-1.05,2.63-2.87c0-2.2-2.2-3.3-4.16-3.3c-1.63,0-4.64,0.86-6.08,5.6
			c-0.29,1-0.43,1.48-1.58,7.51h-3.3c-0.91,0-1.43,0-1.43,0.91c0,0.57,0.43,0.57,1.34,0.57h3.16l-3.59,18.9
			c-0.86,4.64-1.67,8.99-4.16,8.99c-0.19,0-1.39,0-2.3-0.86c2.2-0.14,2.63-1.87,2.63-2.58c0-1.1-0.86-1.67-1.77-1.67
			c-1.24,0-2.63,1.05-2.63,2.87c0,2.15,2.1,3.3,4.07,3.3c2.63,0,4.54-2.82,5.4-4.64c1.53-3.01,2.63-8.8,2.68-9.14L1974.14,379.36"/>
		<path class="st17" d="M2004.71,353.74c0-3.73-0.53-9.52-3.16-14.92c-2.87-5.88-6.98-8.99-7.46-8.99c-0.29,0-0.48,0.19-0.48,0.48
			c0,0.14,0,0.24,0.91,1.1c4.69,4.73,7.41,12.34,7.41,22.34c0,8.18-1.77,16.6-7.7,22.63c-0.62,0.57-0.62,0.67-0.62,0.81
			c0,0.29,0.19,0.48,0.48,0.48c0.48,0,4.78-3.25,7.61-9.33C2004.14,363.06,2004.71,357.76,2004.71,353.74"/>
	</g>
	<g>
		<line class="st19" x1="460" y1="898.5" x2="859" y2="1123.5"/>
		<line class="st19" x1="459.5" y1="884" x2="858.5" y2="1024"/>
		<rect x="858.5" y="1024" class="st19" width="135" height="100"/>
	</g>
	<text transform="matrix(1 0 0 1 1039.1968 1088.9502)" class="st9 st13">x_step</text>
	<text transform="matrix(1 0 0 1 856.6865 1199.8438)" class="st9 st13">z_step</text>
	<rect y="1369.5" class="st20" width="2192" height="151"/>
	<text transform="matrix(1 0 0 1 533.5389 1465.8379)" class="st9 st10">Experimental geometry scheme</text>
</g>
</svg>
