<svg id="Layer_1" data-name="Layer 1" xmlns="http://www.w3.org/2000/svg" xmlns:xlink="http://www.w3.org/1999/xlink" viewBox="0 0 321.73 88.19"><defs><style>.cls-1{fill:#00395e;}.cls-2{fill:url(#linear-gradient);}.cls-3{fill:#f15a24;}</style><linearGradient id="linear-gradient" x1="249.4" y1="-114.06" x2="301.68" y2="-114.06" gradientTransform="translate(297.4 324.96) rotate(-90)" gradientUnits="userSpaceOnUse"><stop offset="0" stop-color="#f28e00" stop-opacity="0.5"/><stop offset="0.21" stop-color="#f28e00" stop-opacity="0.48"/><stop offset="0.41" stop-color="#f28e00" stop-opacity="0.44"/><stop offset="0.61" stop-color="#f28e00" stop-opacity="0.36"/><stop offset="0.8" stop-color="#f28e00" stop-opacity="0.25"/><stop offset="0.99" stop-color="#f28e00" stop-opacity="0.11"/><stop offset="1" stop-color="#f28e00" stop-opacity="0.1"/></linearGradient></defs><path class="cls-1" d="M45.4,27.83A39.43,39.43,0,0,1,53.63,24a30.85,30.85,0,0,1,9.89-1.48q9.42,0,14,5.18t4.6,17.23q0,15.63-6.23,23.14t-18.46,7.5a36.69,36.69,0,0,1-5.59-.36,27.69,27.69,0,0,1-3.77-.83q0,9.89.41,17.6h6.78a6.89,6.89,0,0,1,.62,2.9,2.52,2.52,0,0,1-.57,1.91,3.28,3.28,0,0,1-2.17.52H31.79a8.23,8.23,0,0,1-.67-3.1,2.26,2.26,0,0,1,.57-1.69A2.65,2.65,0,0,1,33.55,92h3.57q.42-7.71.42-20.91V49q0-15.27-1.19-17.7t-4.56-2.43a7,7,0,0,1-.67-3,1.68,1.68,0,0,1,1.09-1.79q1.08-.39,13.19-.8A16.5,16.5,0,0,1,45.4,27.83Zm2.7,37.84a17.37,17.37,0,0,0,4.5,2.12,18.81,18.81,0,0,0,5.74.83q6.88,0,9.53-4.19t2.64-14.5q0-11.22-2.77-15.86t-8.93-4.63a12.69,12.69,0,0,0-5.56,1.19,7.94,7.94,0,0,0-3.83,4,19,19,0,0,0-1.32,7.89Z" transform="translate(-31.12 -9.1)"/><path class="cls-1" d="M135.1,29.64q-2.49,7.62-10,32T114.06,90.41a16.07,16.07,0,0,1-8.12,5.64,39.11,39.11,0,0,1-10.33,1.24c-3.76,0-6.2-.27-7.32-.83a3.08,3.08,0,0,1-1.69-3,7.83,7.83,0,0,1,1.76-5q9.74,2,14.34,1.48t9.16-14.78a20.2,20.2,0,0,1-4.66-.41q-.36-.27-5.43-17.45t-6.34-21a44.22,44.22,0,0,0-2-5.28,3.26,3.26,0,0,0-1.89-1.82,10.86,10.86,0,0,0-3-.33,8.63,8.63,0,0,1-.67-3.16,1.94,1.94,0,0,1,1.76-2.1,48.16,48.16,0,0,1,7.14-.33,20.55,20.55,0,0,1,5.59.49,3.2,3.2,0,0,1,2,1.81,50.35,50.35,0,0,1,1.73,7.33q1.17,6,4.92,20t4.22,14q.47,0,4.71-16.12t4.86-21.15h-2.79a7.77,7.77,0,0,1-.62-3.05,3.15,3.15,0,0,1,.59-2.17A2.58,2.58,0,0,1,124,23.8h14.6a7.23,7.23,0,0,1,.67,3.1,2.78,2.78,0,0,1-.67,2.18,3.67,3.67,0,0,1-2.33.56Z" transform="translate(-31.12 -9.1)"/><path class="cls-2" d="M201.85,23.28,184.92,73.93a2.51,2.51,0,0,1-2.41,1.62h-17.7V23.28Z" transform="translate(-31.12 -9.1)"/><path class="cls-1" d="M164.81,38.6v37h-7.69a2.42,2.42,0,0,1-2.52-2.3V25.57a2.4,2.4,0,0,1,2.52-2.29h7.69Z" transform="translate(-31.12 -9.1)"/><path class="cls-3" d="M164.81,37.71V30.42c1.14-.38.95-.32,2-.64l2.35,6.55C168.19,36.62,165.87,37.35,164.81,37.71Z" transform="translate(-31.12 -9.1)"/><path class="cls-3" d="M170.68,35.89l-2.19-6.59c1.17-.32,2.32-.61,3.43-.86l1.81,6.69C172.75,35.35,171.72,35.61,170.68,35.89Z" transform="translate(-31.12 -9.1)"/><path class="cls-3" d="M175.25,34.81l-1.58-6.74c1.23-.23,2.43-.43,3.59-.57l1,6.82C177.31,34.44,176.29,34.61,175.25,34.81Z" transform="translate(-31.12 -9.1)"/><path class="cls-3" d="M179.78,34.17l-.69-6.86c1.16-.1,2.31-.15,3.42-.15h.31l-.07,6.89h-.24C181.63,34.05,180.71,34.09,179.78,34.17Z" transform="translate(-31.12 -9.1)"/><path class="cls-3" d="M184.49,34.06l-.06-6.89c1.11,0,2.12,0,3.11-.11l.55,6.87C187,34,185.77,34.05,184.49,34.06Z" transform="translate(-31.12 -9.1)"/><path class="cls-3" d="M189.92,33.77l-.86-6.84c1-.11,2-.25,3-.44l1.55,6.74C192.4,33.46,191.17,33.64,189.92,33.77Z" transform="translate(-31.12 -9.1)"/><path class="cls-3" d="M195.39,32.84l-1.92-6.66c.95-.23,1.9-.5,2.83-.82L199,31.8C197.79,32.2,196.59,32.55,195.39,32.84Z" transform="translate(-31.12 -9.1)"/><path class="cls-3" d="M199.85,29.4l-2.18-4.55c.59-.23,3.6-1.3,4.18-1.57" transform="translate(-31.12 -9.1)"/><path class="cls-1" d="M220,69.6q-5.28-6-5.28-18,0-13.81,6.39-21.48T239.6,22.5q11.24,0,16.51,5.95t5.28,18q0,13.76-6.39,21.42t-18.45,7.66Q225.32,75.55,220,69.6Zm27-5.43q2.64-4.45,2.64-13.72,0-10.66-2.72-15.84t-9.34-5.17q-5.9,0-8.54,4.45t-2.64,13.77q0,10.61,2.72,15.78t9.34,5.18Q244.42,68.62,247.05,64.17Z" transform="translate(-31.12 -9.1)"/><path class="cls-1" d="M304,23.82c2.68.88,4,2.31,4,4.27a9.3,9.3,0,0,1-2.58,6.06q-10.15-4.71-16.05-4.71-4,0-6,1.5a5.11,5.11,0,0,0-2,4.35,6.1,6.1,0,0,0,2.25,4.86q2.25,1.92,9.24,4.5,8.8,3.1,12.53,6.45c2.48,2.22,3.72,5.29,3.72,9.18q0,7.41-5.69,11.34t-16.2,3.93A49.82,49.82,0,0,1,275,74.41q-4.21-1.12-4.22-4.76a8.22,8.22,0,0,1,2-5.17,39.11,39.11,0,0,0,16.46,4.14c3.17,0,5.54-.52,7.09-1.56a5.53,5.53,0,0,0,2.33-5,6.58,6.58,0,0,0-3.55-5.83,76.28,76.28,0,0,0-11.1-5.09q-7.46-2.85-10.3-6a11.51,11.51,0,0,1-2.85-8,12.47,12.47,0,0,1,5.64-10.61q5.65-4,16.62-4A35.79,35.79,0,0,1,304,23.82Z" transform="translate(-31.12 -9.1)"/><path class="cls-1" d="M324.33,23.8l4.19-14.7a16.58,16.58,0,0,1,3.7,1.6,6.25,6.25,0,0,1,2.25,2.2c.48.85.73,3.77.73,8.77V23.8h17a10.32,10.32,0,0,1,.63,3.62,2.61,2.61,0,0,1-.57,2,3.68,3.68,0,0,1-2.28.49H335.2V54.38q0,8.76,1.6,11.52a5.55,5.55,0,0,0,4.84,2.92c2.16.11,4.8-.6,7.95-2.12a6.65,6.65,0,0,1,1.13,3.73c0,1.83-1,3-3,3.67a35,35,0,0,1-9.55.94q-7.09,0-10.33-2.9t-3.23-10.82V49.16q0-9.94-.57-19.26h-5.08a11.53,11.53,0,0,1-.62-3.62,2.67,2.67,0,0,1,.57-1.89,2.57,2.57,0,0,1,1.92-.59Z" transform="translate(-31.12 -9.1)"/></svg>